# xmcd
#
# Track frame offsets:
#	182
#	13570
#	26407
#	39052
#	50200
#	61845
#	72920
#	85827
#	98120
#	108610
#	122537
#	133062
#	146070
#	157807
#	170207
#	183285
#	194757
#	206377
#	220267
#	232260
#
# Disc length: 3281 seconds
#
# Revision: 1
# Processed by: cddbd v1.4PL0 Copyright (c) Steve Scherf et al.
# Submitted via: audiograbber 1.81.03
#
DISCID=200ccf14
DTITLE=Ray Charles - 20 Golden Pieces of Ray Charles
DYEAR=1994
DGENRE=Blues
TTITLE0=Alone In The City
TTITLE1=Can Anyone Ask For More
TTITLE2=Rockin' Chair Blues
TTITLE3=Let's Have A Ball
TTITLE4=How Long
TTITLE5=A Sentimental Blues
TTITLE6=You Always Miss The Water
TTITLE7=I've Had My Fun (Going Down Slow)
TTITLE8=Sitting On Top Of The World (Now She's Gone)
TTITLE9=Ain't That Fine
TTITLE10=Don't Put All Your Dreams In One Basket
TTITLE11=Ray Charles Blues
TTITLE12=Honey Honey
TTITLE13=She's On The Ball
TTITLE14=Baby Won't You Please Come Home
TTITLE15=If I Give You My Love
TTITLE16=This Love Of Mine
TTITLE17=Can't You See Darling
TTITLE18=Someday
TTITLE19=I'm Going Down To The River
EXTD=
EXTT0=
EXTT1=
EXTT2=
EXTT3=
EXTT4=
EXTT5=
EXTT6=
EXTT7=
EXTT8=
EXTT9=
EXTT10=
EXTT11=
EXTT12=
EXTT13=
EXTT14=
EXTT15=
EXTT16=
EXTT17=
EXTT18=
EXTT19=
PLAYORDER=
